<svg width="600" height="400" viewBox="420 355 380 90" fill="none" xmlns="http://www.w3.org/2000/svg">
<g clip-path="url(#clip0_3_58)">
<path d="M446.616 372.024H479.52V379.944H455.688V393.912H478.152V401.544H455.688V423H446.616V372.024ZM532.817 404.28C532.817 407.352 532.289 410.136 531.233 412.632C530.177 415.08 528.737 417.168 526.913 418.896C525.089 420.624 522.929 421.968 520.433 422.928C517.937 423.84 515.225 424.296 512.297 424.296C509.369 424.296 506.657 423.84 504.161 422.928C501.665 421.968 499.481 420.624 497.609 418.896C495.785 417.168 494.345 415.08 493.289 412.632C492.281 410.136 491.777 407.352 491.777 404.28V372.024H500.849V403.92C500.849 405.408 501.041 406.896 501.425 408.384C501.809 409.824 502.433 411.12 503.297 412.272C504.209 413.424 505.385 414.36 506.825 415.08C508.313 415.8 510.137 416.16 512.297 416.16C514.457 416.16 516.257 415.8 517.697 415.08C519.185 414.36 520.361 413.424 521.225 412.272C522.137 411.12 522.785 409.824 523.169 408.384C523.553 406.896 523.745 405.408 523.745 403.92V372.024H532.817V404.28ZM547.928 372.024H557V414.936H578.672V423H547.928V372.024ZM641.778 423H611.034C606.954 423 603.234 422.424 599.874 421.272C596.562 420.072 593.706 418.368 591.306 416.16C588.954 413.904 587.13 411.168 585.834 407.952C584.538 404.688 583.89 400.992 583.89 396.864C583.89 392.976 584.562 389.448 585.906 386.28C587.298 383.064 589.218 380.304 591.666 378C594.114 375.696 596.994 373.92 600.306 372.672C603.666 371.376 607.29 370.728 611.178 370.728C615.066 370.728 618.666 371.376 621.978 372.672C625.29 373.92 628.146 375.696 630.546 378C632.994 380.304 634.89 383.064 636.234 386.28C637.578 389.448 638.25 392.976 638.25 396.864C638.25 399.168 637.986 401.28 637.458 403.2C636.93 405.12 636.234 406.872 635.37 408.456C634.554 409.992 633.594 411.36 632.49 412.56C631.434 413.712 630.33 414.696 629.178 415.512V415.656H641.778V423ZM611.178 378.864C608.73 378.864 606.426 379.32 604.266 380.232C602.154 381.144 600.33 382.392 598.794 383.976C597.258 385.56 596.034 387.456 595.122 389.664C594.258 391.872 593.826 394.272 593.826 396.864C593.826 399.6 594.234 402.096 595.05 404.352C595.914 406.56 597.09 408.456 598.578 410.04C600.114 411.624 601.938 412.872 604.05 413.784C606.162 414.648 608.49 415.08 611.034 415.08C613.53 415.08 615.834 414.648 617.946 413.784C620.106 412.872 621.954 411.624 623.49 410.04C625.026 408.456 626.226 406.56 627.09 404.352C627.954 402.096 628.386 399.6 628.386 396.864C628.386 394.272 627.978 391.872 627.162 389.664C626.346 387.456 625.17 385.56 623.634 383.976C622.146 382.392 620.346 381.144 618.234 380.232C616.122 379.32 613.77 378.864 611.178 378.864ZM652.474 372.024H670.186C672.586 372.024 674.914 372.288 677.17 372.816C679.426 373.296 681.418 374.112 683.146 375.264C684.922 376.416 686.338 377.928 687.394 379.8C688.45 381.672 688.978 383.952 688.978 386.64C688.978 390.336 687.922 393.36 685.81 395.712C683.746 398.016 680.914 399.576 677.314 400.392L690.922 423H679.978L668.17 401.4H661.546V423H652.474V372.024ZM668.962 393.984C670.258 393.984 671.554 393.888 672.85 393.696C674.146 393.504 675.298 393.144 676.306 392.616C677.362 392.088 678.226 391.344 678.898 390.384C679.57 389.376 679.906 388.104 679.906 386.568C679.906 385.176 679.594 384.048 678.97 383.184C678.346 382.272 677.554 381.552 676.594 381.024C675.634 380.496 674.53 380.136 673.282 379.944C672.082 379.752 670.906 379.656 669.754 379.656H661.546V393.984H668.962ZM699.627 397.368C699.627 393.288 700.299 389.616 701.643 386.352C703.035 383.04 704.931 380.232 707.331 377.928C709.779 375.624 712.659 373.848 715.971 372.6C719.331 371.352 722.979 370.728 726.915 370.728C730.899 370.728 734.571 371.352 737.931 372.6C741.291 373.848 744.195 375.624 746.643 377.928C749.091 380.232 750.987 383.04 752.331 386.352C753.723 389.616 754.419 393.288 754.419 397.368C754.419 401.352 753.723 405 752.331 408.312C750.987 411.576 749.091 414.408 746.643 416.808C744.195 419.16 741.291 421.008 737.931 422.352C734.571 423.648 730.899 424.296 726.915 424.296C722.979 424.296 719.331 423.648 715.971 422.352C712.659 421.008 709.779 419.16 707.331 416.808C704.931 414.408 703.035 411.576 701.643 408.312C700.299 405 699.627 401.352 699.627 397.368ZM709.491 397.368C709.491 400.104 709.899 402.624 710.715 404.928C711.579 407.184 712.779 409.152 714.315 410.832C715.899 412.512 717.747 413.832 719.859 414.792C722.019 415.704 724.395 416.16 726.987 416.16C729.579 416.16 731.955 415.704 734.115 414.792C736.275 413.832 738.123 412.512 739.659 410.832C741.243 409.152 742.443 407.184 743.259 404.928C744.123 402.624 744.555 400.104 744.555 397.368C744.555 394.728 744.123 392.28 743.259 390.024C742.443 387.768 741.267 385.8 739.731 384.12C738.195 382.44 736.347 381.12 734.187 380.16C732.027 379.2 729.627 378.72 726.987 378.72C724.347 378.72 721.947 379.2 719.787 380.16C717.675 381.12 715.851 382.44 714.315 384.12C712.779 385.8 711.579 387.768 710.715 390.024C709.899 392.28 709.491 394.728 709.491 397.368Z" fill="#E8E4DE"/>
<g filter="url(#filter0_d_3_58)">
<rect width="6" height="52" transform="matrix(-1 0 0 1 771 374)" fill="#D4880A"/>
</g>
<path d="M443.664 444.72H447.984V462H443.664V444.72ZM443.052 438.852C443.052 438.156 443.304 437.556 443.808 437.052C444.336 436.524 444.996 436.26 445.788 436.26C446.58 436.26 447.24 436.512 447.768 437.016C448.32 437.496 448.596 438.108 448.596 438.852C448.596 439.596 448.32 440.22 447.768 440.724C447.24 441.204 446.58 441.444 445.788 441.444C444.996 441.444 444.336 441.192 443.808 440.688C443.304 440.16 443.052 439.548 443.052 438.852ZM459.705 444.72H463.809V447.492H463.881C464.265 446.628 464.925 445.872 465.861 445.224C466.821 444.552 467.949 444.216 469.245 444.216C470.373 444.216 471.333 444.42 472.125 444.828C472.941 445.212 473.601 445.728 474.105 446.376C474.633 447.024 475.017 447.768 475.257 448.608C475.497 449.448 475.617 450.312 475.617 451.2V462H471.297V452.424C471.297 451.92 471.261 451.392 471.189 450.84C471.117 450.288 470.961 449.796 470.721 449.364C470.481 448.908 470.145 448.536 469.713 448.248C469.305 447.96 468.753 447.816 468.057 447.816C467.361 447.816 466.761 447.96 466.257 448.248C465.753 448.512 465.333 448.86 464.997 449.292C464.685 449.724 464.445 450.228 464.277 450.804C464.109 451.356 464.025 451.92 464.025 452.496V462H459.705V444.72ZM504.706 462H500.602V459.408H500.53C499.93 460.416 499.09 461.184 498.01 461.712C496.954 462.24 495.814 462.504 494.59 462.504C493.27 462.504 492.082 462.264 491.026 461.784C489.994 461.28 489.106 460.62 488.362 459.804C487.642 458.964 487.078 457.992 486.67 456.888C486.286 455.76 486.094 454.56 486.094 453.288C486.094 452.016 486.298 450.828 486.706 449.724C487.114 448.62 487.69 447.66 488.434 446.844C489.178 446.028 490.066 445.392 491.098 444.936C492.13 444.456 493.258 444.216 494.482 444.216C495.274 444.216 495.982 444.312 496.606 444.504C497.23 444.672 497.77 444.888 498.226 445.152C498.706 445.416 499.114 445.704 499.45 446.016C499.786 446.328 500.062 446.628 500.278 446.916H500.386V434.784H504.706V462ZM490.486 453.288C490.486 453.96 490.582 454.632 490.774 455.304C490.99 455.976 491.302 456.576 491.71 457.104C492.118 457.632 492.634 458.064 493.258 458.4C493.882 458.736 494.614 458.904 495.454 458.904C496.246 458.904 496.954 458.748 497.578 458.436C498.202 458.1 498.73 457.668 499.162 457.14C499.618 456.612 499.954 456.024 500.17 455.376C500.41 454.704 500.53 454.032 500.53 453.36C500.53 452.688 500.41 452.016 500.17 451.344C499.954 450.672 499.618 450.072 499.162 449.544C498.73 449.016 498.202 448.584 497.578 448.248C496.954 447.912 496.246 447.744 495.454 447.744C494.614 447.744 493.882 447.912 493.258 448.248C492.634 448.56 492.118 448.98 491.71 449.508C491.302 450.036 490.99 450.636 490.774 451.308C490.582 451.956 490.486 452.616 490.486 453.288ZM516.506 444.72H520.826V462H516.506V444.72ZM515.894 438.852C515.894 438.156 516.146 437.556 516.65 437.052C517.178 436.524 517.838 436.26 518.63 436.26C519.422 436.26 520.082 436.512 520.61 437.016C521.162 437.496 521.438 438.108 521.438 438.852C521.438 439.596 521.162 440.22 520.61 440.724C520.082 441.204 519.422 441.444 518.63 441.444C517.838 441.444 517.178 441.192 516.65 440.688C516.146 440.16 515.894 439.548 515.894 438.852ZM542.015 449.328C541.631 448.824 541.103 448.392 540.431 448.032C539.759 447.648 539.027 447.456 538.235 447.456C537.539 447.456 536.903 447.6 536.327 447.888C535.751 448.176 535.463 448.656 535.463 449.328C535.463 450 535.775 450.48 536.399 450.768C537.047 451.032 537.983 451.308 539.207 451.596C539.855 451.74 540.503 451.932 541.151 452.172C541.823 452.412 542.423 452.736 542.951 453.144C543.503 453.528 543.947 454.02 544.283 454.62C544.619 455.196 544.787 455.904 544.787 456.744C544.787 457.8 544.583 458.7 544.175 459.444C543.791 460.164 543.263 460.752 542.591 461.208C541.943 461.664 541.175 461.988 540.287 462.18C539.423 462.396 538.523 462.504 537.587 462.504C536.243 462.504 534.935 462.264 533.663 461.784C532.391 461.28 531.335 460.572 530.495 459.66L533.339 456.996C533.819 457.62 534.443 458.136 535.211 458.544C535.979 458.952 536.831 459.156 537.767 459.156C538.079 459.156 538.391 459.12 538.703 459.048C539.039 458.976 539.339 458.868 539.603 458.724C539.891 458.556 540.119 458.34 540.287 458.076C540.455 457.812 540.539 457.488 540.539 457.104C540.539 456.384 540.203 455.868 539.531 455.556C538.883 455.244 537.899 454.932 536.579 454.62C535.931 454.476 535.295 454.296 534.671 454.08C534.071 453.84 533.531 453.54 533.051 453.18C532.571 452.796 532.187 452.328 531.899 451.776C531.611 451.224 531.467 450.54 531.467 449.724C531.467 448.764 531.659 447.936 532.043 447.24C532.451 446.544 532.979 445.98 533.627 445.548C534.275 445.092 535.007 444.756 535.823 444.54C536.639 444.324 537.479 444.216 538.343 444.216C539.591 444.216 540.803 444.432 541.979 444.864C543.179 445.296 544.127 445.956 544.823 446.844L542.015 449.328ZM559.163 444.72V447.132H559.271C559.487 446.796 559.763 446.46 560.099 446.124C560.459 445.764 560.891 445.452 561.395 445.188C561.899 444.9 562.463 444.672 563.087 444.504C563.735 444.312 564.455 444.216 565.247 444.216C566.471 444.216 567.599 444.456 568.631 444.936C569.663 445.392 570.551 446.028 571.295 446.844C572.039 447.66 572.615 448.62 573.023 449.724C573.431 450.828 573.635 452.016 573.635 453.288C573.635 454.56 573.431 455.76 573.023 456.888C572.639 457.992 572.075 458.964 571.331 459.804C570.611 460.62 569.723 461.28 568.667 461.784C567.635 462.264 566.459 462.504 565.139 462.504C563.915 462.504 562.787 462.252 561.755 461.748C560.747 461.244 559.967 460.56 559.415 459.696H559.343V470.64H555.023V444.72H559.163ZM569.243 453.288C569.243 452.616 569.135 451.956 568.919 451.308C568.727 450.636 568.427 450.036 568.019 449.508C567.611 448.98 567.095 448.56 566.471 448.248C565.847 447.912 565.115 447.744 564.275 447.744C563.483 447.744 562.775 447.912 562.151 448.248C561.527 448.584 560.987 449.016 560.531 449.544C560.099 450.072 559.763 450.672 559.523 451.344C559.307 452.016 559.199 452.688 559.199 453.36C559.199 454.032 559.307 454.704 559.523 455.376C559.763 456.024 560.099 456.612 560.531 457.14C560.987 457.668 561.527 458.1 562.151 458.436C562.775 458.748 563.483 458.904 564.275 458.904C565.115 458.904 565.847 458.736 566.471 458.4C567.095 458.064 567.611 457.632 568.019 457.104C568.427 456.576 568.727 455.976 568.919 455.304C569.135 454.632 569.243 453.96 569.243 453.288ZM596.453 451.632C596.453 451.08 596.369 450.552 596.201 450.048C596.057 449.544 595.817 449.1 595.481 448.716C595.145 448.332 594.713 448.032 594.185 447.816C593.681 447.576 593.081 447.456 592.385 447.456C591.089 447.456 589.985 447.852 589.073 448.644C588.185 449.412 587.693 450.408 587.597 451.632H596.453ZM600.773 453.576C600.773 453.768 600.773 453.96 600.773 454.152C600.773 454.344 600.761 454.536 600.737 454.728H587.597C587.645 455.352 587.801 455.928 588.065 456.456C588.353 456.96 588.725 457.404 589.181 457.788C589.637 458.148 590.153 458.436 590.729 458.652C591.305 458.868 591.905 458.976 592.529 458.976C593.609 458.976 594.521 458.784 595.265 458.4C596.009 457.992 596.621 457.44 597.101 456.744L599.981 459.048C598.277 461.352 595.805 462.504 592.565 462.504C591.221 462.504 589.985 462.3 588.857 461.892C587.729 461.46 586.745 460.86 585.905 460.092C585.089 459.324 584.441 458.388 583.961 457.284C583.505 456.156 583.277 454.884 583.277 453.468C583.277 452.076 583.505 450.816 583.961 449.688C584.441 448.536 585.089 447.564 585.905 446.772C586.721 445.956 587.681 445.332 588.785 444.9C589.913 444.444 591.125 444.216 592.421 444.216C593.621 444.216 594.725 444.42 595.733 444.828C596.765 445.212 597.653 445.8 598.397 446.592C599.141 447.36 599.717 448.332 600.125 449.508C600.557 450.66 600.773 452.016 600.773 453.576ZM611.436 444.72H615.54V447.492H615.612C615.996 446.628 616.656 445.872 617.592 445.224C618.552 444.552 619.68 444.216 620.976 444.216C622.104 444.216 623.064 444.42 623.856 444.828C624.672 445.212 625.332 445.728 625.836 446.376C626.364 447.024 626.748 447.768 626.988 448.608C627.228 449.448 627.348 450.312 627.348 451.2V462H623.028V452.424C623.028 451.92 622.992 451.392 622.92 450.84C622.848 450.288 622.692 449.796 622.452 449.364C622.212 448.908 621.876 448.536 621.444 448.248C621.036 447.96 620.484 447.816 619.788 447.816C619.092 447.816 618.492 447.96 617.988 448.248C617.484 448.512 617.064 448.86 616.728 449.292C616.416 449.724 616.176 450.228 616.008 450.804C615.84 451.356 615.756 451.92 615.756 452.496V462H611.436V444.72ZM648.337 449.328C647.953 448.824 647.425 448.392 646.753 448.032C646.081 447.648 645.349 447.456 644.557 447.456C643.861 447.456 643.225 447.6 642.649 447.888C642.073 448.176 641.785 448.656 641.785 449.328C641.785 450 642.097 450.48 642.721 450.768C643.369 451.032 644.305 451.308 645.529 451.596C646.177 451.74 646.825 451.932 647.473 452.172C648.145 452.412 648.745 452.736 649.273 453.144C649.825 453.528 650.269 454.02 650.605 454.62C650.941 455.196 651.109 455.904 651.109 456.744C651.109 457.8 650.905 458.7 650.497 459.444C650.113 460.164 649.585 460.752 648.913 461.208C648.265 461.664 647.497 461.988 646.609 462.18C645.745 462.396 644.845 462.504 643.909 462.504C642.565 462.504 641.257 462.264 639.985 461.784C638.713 461.28 637.657 460.572 636.817 459.66L639.661 456.996C640.141 457.62 640.765 458.136 641.533 458.544C642.301 458.952 643.153 459.156 644.089 459.156C644.401 459.156 644.713 459.12 645.025 459.048C645.361 458.976 645.661 458.868 645.925 458.724C646.213 458.556 646.441 458.34 646.609 458.076C646.777 457.812 646.861 457.488 646.861 457.104C646.861 456.384 646.525 455.868 645.853 455.556C645.205 455.244 644.221 454.932 642.901 454.62C642.253 454.476 641.617 454.296 640.993 454.08C640.393 453.84 639.853 453.54 639.373 453.18C638.893 452.796 638.509 452.328 638.221 451.776C637.933 451.224 637.789 450.54 637.789 449.724C637.789 448.764 637.981 447.936 638.365 447.24C638.773 446.544 639.301 445.98 639.949 445.548C640.597 445.092 641.329 444.756 642.145 444.54C642.961 444.324 643.801 444.216 644.665 444.216C645.913 444.216 647.125 444.432 648.301 444.864C649.501 445.296 650.449 445.956 651.145 446.844L648.337 449.328ZM672.074 459.804H671.966C671.534 460.572 670.838 461.208 669.878 461.712C668.918 462.192 667.826 462.432 666.602 462.432C665.906 462.432 665.174 462.336 664.406 462.144C663.662 461.976 662.966 461.688 662.318 461.28C661.694 460.848 661.166 460.296 660.734 459.624C660.326 458.928 660.122 458.076 660.122 457.068C660.122 455.772 660.482 454.74 661.202 453.972C661.946 453.204 662.894 452.616 664.046 452.208C665.198 451.8 666.47 451.536 667.862 451.416C669.278 451.272 670.658 451.2 672.002 451.2V450.768C672.002 449.688 671.606 448.896 670.814 448.392C670.046 447.864 669.122 447.6 668.042 447.6C667.13 447.6 666.254 447.792 665.414 448.176C664.574 448.56 663.878 449.028 663.326 449.58L661.094 446.952C662.078 446.04 663.206 445.356 664.478 444.9C665.774 444.444 667.082 444.216 668.402 444.216C669.938 444.216 671.198 444.432 672.182 444.864C673.19 445.296 673.982 445.86 674.558 446.556C675.134 447.252 675.53 448.032 675.746 448.896C675.986 449.76 676.106 450.624 676.106 451.488V462H672.074V459.804ZM672.002 454.116H671.03C670.334 454.116 669.602 454.152 668.834 454.224C668.066 454.272 667.358 454.404 666.71 454.62C666.062 454.812 665.522 455.1 665.09 455.484C664.658 455.844 664.442 456.348 664.442 456.996C664.442 457.404 664.526 457.752 664.694 458.04C664.886 458.304 665.126 458.52 665.414 458.688C665.702 458.856 666.026 458.976 666.386 459.048C666.746 459.12 667.106 459.156 667.466 459.156C668.954 459.156 670.082 458.76 670.85 457.968C671.618 457.176 672.002 456.096 672.002 454.728V454.116ZM692.011 434.784V446.916H692.119C692.335 446.628 692.611 446.328 692.947 446.016C693.283 445.704 693.679 445.416 694.135 445.152C694.615 444.888 695.167 444.672 695.791 444.504C696.415 444.312 697.123 444.216 697.915 444.216C699.139 444.216 700.267 444.456 701.299 444.936C702.331 445.392 703.219 446.028 703.963 446.844C704.707 447.66 705.283 448.62 705.691 449.724C706.099 450.828 706.303 452.016 706.303 453.288C706.303 454.56 706.099 455.76 705.691 456.888C705.307 457.992 704.743 458.964 703.999 459.804C703.279 460.62 702.391 461.28 701.335 461.784C700.303 462.264 699.127 462.504 697.807 462.504C696.583 462.504 695.431 462.24 694.351 461.712C693.295 461.184 692.467 460.416 691.867 459.408H691.795V462H687.691V434.784H692.011ZM701.911 453.288C701.911 452.616 701.803 451.956 701.587 451.308C701.395 450.636 701.095 450.036 700.687 449.508C700.279 448.98 699.763 448.56 699.139 448.248C698.515 447.912 697.783 447.744 696.943 447.744C696.151 447.744 695.443 447.912 694.819 448.248C694.195 448.584 693.655 449.016 693.199 449.544C692.767 450.072 692.431 450.672 692.191 451.344C691.975 452.016 691.867 452.688 691.867 453.36C691.867 454.032 691.975 454.704 692.191 455.376C692.431 456.024 692.767 456.612 693.199 457.14C693.655 457.668 694.195 458.1 694.819 458.436C695.443 458.748 696.151 458.904 696.943 458.904C697.783 458.904 698.515 458.736 699.139 458.4C699.763 458.064 700.279 457.632 700.687 457.104C701.095 456.576 701.395 455.976 701.587 455.304C701.803 454.632 701.911 453.96 701.911 453.288ZM717.022 434.784H721.342V462H717.022V434.784ZM745.231 451.632C745.231 451.08 745.147 450.552 744.979 450.048C744.835 449.544 744.595 449.1 744.259 448.716C743.923 448.332 743.491 448.032 742.963 447.816C742.459 447.576 741.859 447.456 741.163 447.456C739.867 447.456 738.763 447.852 737.851 448.644C736.963 449.412 736.471 450.408 736.375 451.632H745.231ZM749.551 453.576C749.551 453.768 749.551 453.96 749.551 454.152C749.551 454.344 749.539 454.536 749.515 454.728H736.375C736.423 455.352 736.579 455.928 736.843 456.456C737.131 456.96 737.503 457.404 737.959 457.788C738.415 458.148 738.931 458.436 739.507 458.652C740.083 458.868 740.683 458.976 741.307 458.976C742.387 458.976 743.299 458.784 744.043 458.4C744.787 457.992 745.399 457.44 745.879 456.744L748.759 459.048C747.055 461.352 744.583 462.504 741.343 462.504C739.999 462.504 738.763 462.3 737.635 461.892C736.507 461.46 735.523 460.86 734.683 460.092C733.867 459.324 733.219 458.388 732.739 457.284C732.283 456.156 732.055 454.884 732.055 453.468C732.055 452.076 732.283 450.816 732.739 449.688C733.219 448.536 733.867 447.564 734.683 446.772C735.499 445.956 736.459 445.332 737.563 444.9C738.691 444.444 739.903 444.216 741.199 444.216C742.399 444.216 743.503 444.42 744.511 444.828C745.543 445.212 746.431 445.8 747.175 446.592C747.919 447.36 748.495 448.332 748.903 449.508C749.335 450.66 749.551 452.016 749.551 453.576Z" fill="#9C9CA8"/>
</g>
<defs>
<filter id="filter0_d_3_58" x="761" y="374" width="14" height="60" filterUnits="userSpaceOnUse" color-interpolation-filters="sRGB">
<feFlood flood-opacity="0" result="BackgroundImageFix"/>
<feColorMatrix in="SourceAlpha" type="matrix" values="0 0 0 0 0 0 0 0 0 0 0 0 0 0 0 0 0 0 127 0" result="hardAlpha"/>
<feOffset dy="4"/>
<feGaussianBlur stdDeviation="2"/>
<feComposite in2="hardAlpha" operator="out"/>
<feColorMatrix type="matrix" values="0 0 0 0 0 0 0 0 0 0 0 0 0 0 0 0 0 0 0.25 0"/>
<feBlend mode="normal" in2="BackgroundImageFix" result="effect1_dropShadow_3_58"/>
<feBlend mode="normal" in="SourceGraphic" in2="effect1_dropShadow_3_58" result="shape"/>
</filter>
<clipPath id="clip0_3_58">
<rect width="1200" height="800" fill="white"/>
</clipPath>
</defs>
</svg>
